<svg width="1346" height="176" viewBox="0 0 1346 176" fill="none" xmlns="http://www.w3.org/2000/svg">
<path d="M1157.63 175.124C1145.13 175.124 1134.32 172.4 1125.18 166.951C1116.21 161.503 1109.24 153.73 1104.27 143.634C1099.46 133.538 1097.06 121.759 1097.06 108.297C1097.06 94.8356 1099.46 83.1368 1104.27 73.2009C1109.24 63.1047 1116.21 55.3322 1125.18 49.8835C1134.16 44.2745 1144.73 41.47 1156.91 41.47C1168.45 41.47 1178.63 44.1943 1187.44 49.6431C1196.25 54.9316 1203.07 62.6239 1207.87 72.7201C1212.84 82.8163 1215.33 94.9958 1215.33 109.259V115.749H1123.5C1124.14 128.249 1127.42 137.624 1133.35 143.874C1139.44 150.124 1147.62 153.249 1157.87 153.249C1165.41 153.249 1171.66 151.486 1176.62 147.961C1181.59 144.435 1185.04 139.708 1186.96 133.778L1213.4 135.461C1210.04 147.32 1203.39 156.935 1193.45 164.307C1183.67 171.519 1171.74 175.124 1157.63 175.124ZM1123.5 96.5183H1188.4C1187.6 85.14 1184.32 76.7265 1178.55 71.2778C1172.94 65.8291 1165.73 63.1047 1156.91 63.1047C1147.78 63.1047 1140.24 65.9893 1134.32 71.7586C1128.55 77.3676 1124.94 85.6208 1123.5 96.5183Z" fill="#BAC7C2"/>
<path d="M1011.32 175.124C1000.42 175.124 990.889 172.399 982.716 166.95C974.703 161.502 968.533 153.809 964.206 143.873C960.04 133.777 957.956 121.918 957.956 108.296C957.956 94.6746 960.12 82.8957 964.447 72.9597C968.773 62.8635 974.943 55.091 982.956 49.6423C990.969 44.1936 1000.42 41.4692 1011.32 41.4692C1020.14 41.4692 1027.99 43.3122 1034.88 46.9981C1041.77 50.684 1046.98 55.8122 1050.5 62.3827V1.56519H1075.99V172.239H1052.19L1051.47 153.008C1047.94 159.899 1042.57 165.348 1035.36 169.354C1028.31 173.201 1020.3 175.124 1011.32 175.124ZM1018.05 153.008C1024.94 153.008 1030.79 151.245 1035.6 147.72C1040.41 144.194 1044.09 139.066 1046.66 132.335C1049.22 125.604 1050.5 117.591 1050.5 108.296C1050.5 98.681 1049.22 90.588 1046.66 84.0175C1044.09 77.2867 1040.41 72.2386 1035.6 68.8732C1030.79 65.3475 1024.94 63.5847 1018.05 63.5847C1007.8 63.5847 999.623 67.5911 993.533 75.604C987.443 83.4566 984.399 94.354 984.399 108.296C984.399 122.079 987.443 132.976 993.533 140.989C999.623 149.002 1007.8 153.008 1018.05 153.008Z" fill="#BAC7C2"/>
<path d="M911.544 172.239V44.3541H937.025V172.239H911.544ZM911.063 25.8444V0.363525H937.506V25.8444H911.063Z" fill="#BAC7C2"/>
<path d="M725.874 172.239L680.681 1.56519H708.326L741.499 136.422L774.672 1.56519H801.115L834.288 136.422L867.221 1.56519H895.346L849.913 172.239H819.624L787.893 47.7192L756.163 172.239H725.874Z" fill="#BAC7C2"/>
<path d="M539.921 175.124C529.023 175.124 519.488 172.399 511.315 166.95C503.302 161.502 497.132 153.809 492.805 143.873C488.639 133.777 486.555 121.918 486.555 108.296C486.555 94.6746 488.719 82.8957 493.046 72.9597C497.373 62.8635 503.543 55.091 511.555 49.6423C519.568 44.1936 529.023 41.4692 539.921 41.4692C548.735 41.4692 556.588 43.3122 563.479 46.9981C570.37 50.684 575.578 55.8122 579.104 62.3827V1.56519H604.585V172.239H580.786L580.065 153.008C576.54 159.899 571.171 165.348 563.959 169.354C556.908 173.201 548.895 175.124 539.921 175.124ZM546.652 153.008C553.543 153.008 559.392 151.245 564.2 147.72C569.008 144.194 572.693 139.066 575.258 132.335C577.822 125.604 579.104 117.591 579.104 108.296C579.104 98.681 577.822 90.588 575.258 84.0175C572.693 77.2867 569.008 72.2386 564.2 68.8732C559.392 65.3475 553.543 63.5847 546.652 63.5847C536.395 63.5847 528.222 67.5911 522.132 75.604C516.043 83.4566 512.998 94.354 512.998 108.296C512.998 122.079 516.043 132.976 522.132 140.989C528.222 149.002 536.395 153.008 546.652 153.008Z" fill="#BAC7C2"/>
<path d="M412.968 175.124C400.788 175.124 390.131 172.4 380.996 166.951C371.862 161.503 364.811 153.73 359.843 143.634C354.875 133.538 352.391 121.759 352.391 108.297C352.391 94.6753 354.875 82.8964 359.843 72.9605C364.811 63.0246 371.862 55.3322 380.996 49.8835C390.131 44.2745 400.788 41.47 412.968 41.47C425.147 41.47 435.804 44.2745 444.939 49.8835C454.074 55.3322 461.125 63.0246 466.093 72.9605C471.061 82.8964 473.545 94.6753 473.545 108.297C473.545 121.759 471.061 133.538 466.093 143.634C461.125 153.73 454.074 161.503 444.939 166.951C435.804 172.4 425.147 175.124 412.968 175.124ZM412.968 153.009C423.865 153.009 432.279 149.083 438.208 141.23C444.138 133.217 447.103 122.24 447.103 108.297C447.103 94.3548 444.138 83.4573 438.208 75.6047C432.279 67.5919 423.865 63.5854 412.968 63.5854C402.231 63.5854 393.817 67.5919 387.727 75.6047C381.798 83.4573 378.833 94.3548 378.833 108.297C378.833 122.24 381.798 133.217 387.727 141.23C393.817 149.083 402.231 153.009 412.968 153.009Z" fill="#BAC7C2"/>
<path d="M278.81 175.124C266.63 175.124 255.973 172.4 246.839 166.951C237.704 161.503 230.653 153.73 225.685 143.634C220.717 133.538 218.233 121.759 218.233 108.297C218.233 94.6753 220.717 82.8964 225.685 72.9605C230.653 63.0246 237.704 55.3322 246.839 49.8835C255.973 44.2745 266.63 41.47 278.81 41.47C290.989 41.47 301.646 44.2745 310.781 49.8835C319.916 55.3322 326.967 63.0246 331.935 72.9605C336.903 82.8964 339.387 94.6753 339.387 108.297C339.387 121.759 336.903 133.538 331.935 143.634C326.967 153.73 319.916 161.503 310.781 166.951C301.646 172.4 290.989 175.124 278.81 175.124ZM278.81 153.009C289.707 153.009 298.121 149.083 304.05 141.23C309.98 133.217 312.945 122.24 312.945 108.297C312.945 94.3548 309.98 83.4573 304.05 75.6047C298.121 67.5919 289.707 63.5854 278.81 63.5854C268.073 63.5854 259.659 67.5919 253.569 75.6047C247.64 83.4573 244.675 94.3548 244.675 108.297C244.675 122.24 247.64 133.217 253.569 141.23C259.659 149.083 268.073 153.009 278.81 153.009Z" fill="#BAC7C2"/>
<path d="M45.1925 172.239L0 1.56519H27.6443L60.8176 136.422L93.9908 1.56519H120.433L153.606 136.422L186.539 1.56519H214.664L169.231 172.239H138.943L107.212 47.7192L75.4811 172.239H45.1925Z" fill="#BAC7C2"/>
<path d="M1329.52 73.892V0H1345.34V73.892H1329.52Z" fill="#BAC7C2"/>
<path d="M1245.21 73.892L1271.85 0H1290.58L1317.23 73.892H1300.78L1295.37 58.1769H1266.96L1261.55 73.892H1245.21ZM1271.43 45.1678H1291L1281.22 16.6517L1271.43 45.1678Z" fill="#BAC7C2"/>
</svg>
