<svg width="40" height="40" viewBox="0 0 40 40" fill="none" xmlns="http://www.w3.org/2000/svg">
<rect width="40" height="40" rx="8" fill="#0B3D2E"/>
<path d="M37.3232 37.8586V40H2.67679V37.8586H37.3232ZM37.8586 37.3232V2.67679C37.8585 2.3812 37.6188 2.14149 37.3232 2.14143H2.67679C2.3812 2.14149 2.1415 2.3812 2.14143 2.67679V37.3232C2.14148 37.6188 2.38119 37.8585 2.67679 37.8586V40C1.24463 39.9999 0.0753002 38.8752 0.00360857 37.4609L0 37.3232V2.67679C6.47496e-05 1.19847 1.19847 6.29826e-05 2.67679 0H37.3232L37.4609 0.00360857C38.8752 0.0753021 39.9999 1.24463 40 2.67679V37.3232L39.9967 37.4609C39.9273 38.8296 38.8296 39.9273 37.4609 39.9967L37.3232 40V37.8586C37.6188 37.8585 37.8585 37.6188 37.8586 37.3232Z" fill="white"/>
<path d="M31.2997 6.76912C31.8353 6.76926 32.2696 7.20365 32.2696 7.73931C32.2695 8.27491 31.8353 8.7091 31.2997 8.70924C31.2425 8.70924 31.1865 8.70428 31.1321 8.69479C31.0841 8.68644 31.0342 8.70038 31.0012 8.73615L29.3315 10.5447C28.7562 11.1676 27.9467 11.5221 27.0988 11.5221H25.4365C25.395 11.5221 25.3559 11.5417 25.3309 11.5749L20.5273 17.9765C20.4775 18.043 20.4505 18.1238 20.4505 18.2069C20.4505 18.313 20.4948 18.4141 20.5701 18.4889C20.6701 18.5882 20.7665 18.6898 20.8632 18.7882L21.5032 19.3775C21.5082 19.3821 21.5135 19.3863 21.5191 19.3901C21.8641 19.6188 22.2713 19.7437 22.6917 19.7437H30.7658C30.8144 19.7437 30.8585 19.7166 30.8849 19.6758C31.0577 19.4087 31.3582 19.2318 31.7 19.2318C32.2356 19.232 32.6699 19.6664 32.6699 20.202C32.6698 20.7376 32.2356 21.1718 31.7 21.172C31.3582 21.172 31.0577 20.9953 30.8849 20.7282C30.8585 20.6874 30.8144 20.6603 30.7658 20.6603H26.8529C26.7284 20.6603 26.6731 20.817 26.7701 20.8951L28.3356 22.1558C28.359 22.1746 28.3883 22.1849 28.4184 22.1849H30.9798C31.2329 22.1849 31.4381 22.3901 31.4381 22.6432C31.4381 22.8963 31.2329 23.1015 30.9798 23.1015H29.8432C29.7197 23.1015 29.6638 23.256 29.7588 23.3349L31.0008 24.3679C31.0407 24.4011 31.0962 24.4071 31.1447 24.3885C31.2525 24.3472 31.3696 24.3246 31.492 24.3246C32.0276 24.3247 32.4619 24.7591 32.4619 25.2948C32.4618 25.8303 32.0275 26.2645 31.492 26.2647C30.9563 26.2647 30.5219 25.8304 30.5218 25.2948C30.5218 25.2766 30.5223 25.2586 30.5233 25.2408C30.5258 25.1956 30.5089 25.1509 30.4742 25.122L27.9228 23.0002L25.0534 20.6895C25.0299 20.6706 25.0007 20.6603 24.9706 20.6603H23.2342C23.114 20.6603 23.0564 20.8079 23.1448 20.8894L26.7372 24.1976C26.7615 24.2201 26.7934 24.2325 26.8266 24.2325H28.443C28.696 24.2326 28.9013 24.4378 28.9013 24.6908C28.9013 24.9439 28.696 25.149 28.443 25.1491H28.1086C27.9884 25.1491 27.9308 25.2967 28.0192 25.3782L29.2171 26.4813C29.2517 26.5132 29.3004 26.5235 29.3463 26.5133C29.415 26.4979 29.4865 26.49 29.5598 26.49C30.0955 26.4901 30.5298 26.9245 30.5298 27.4602C30.5296 27.9957 30.0954 28.4299 29.5598 28.4301C29.0242 28.4301 28.5898 27.9958 28.5896 27.4602C28.5896 27.3935 28.5964 27.3284 28.6093 27.2655C28.6193 27.2163 28.6057 27.1643 28.5687 27.1303L20.9353 20.1005C20.789 19.9968 20.6506 19.8802 20.5232 19.7504C20.4966 19.7233 20.4505 19.7421 20.4505 19.7801V21.6044C20.4505 21.612 20.454 21.6189 20.4595 21.6241L27.5579 28.1614C27.5925 28.1932 27.6413 28.2036 27.6871 28.1933C27.7559 28.1778 27.8275 28.1698 27.9009 28.1698C28.4365 28.1699 28.8708 28.6043 28.8709 29.1399C28.8708 29.6755 28.4365 30.1097 27.9009 30.1099C27.3652 30.1099 26.9308 29.6756 26.9307 29.1399C26.9307 29.0733 26.9375 29.0082 26.9503 28.9453C26.9604 28.8961 26.9468 28.8441 26.9098 28.8101L20.6719 23.0654C20.5873 22.9875 20.4505 23.0475 20.4505 23.1625V24.7277C20.4505 24.7352 20.454 24.7422 20.4595 24.7473L26.4735 30.2857C26.6596 30.4571 26.6717 30.747 26.5003 30.9331C26.3288 31.1193 26.0387 31.1311 25.8525 30.9597L20.6719 26.1886C20.5873 26.1107 20.4505 26.1707 20.4505 26.2857V28.0132C20.4505 28.0206 20.454 28.0273 20.4595 28.0324L23.5478 30.8765C23.5821 30.9081 23.6304 30.9185 23.6759 30.9086C23.7427 30.8941 23.812 30.8865 23.883 30.8865C24.4186 30.8866 24.8529 31.3211 24.853 31.8567C24.8529 32.3923 24.4186 32.8265 23.883 32.8266C23.3473 32.8266 22.9129 32.3924 22.9128 31.8567C22.9128 31.7878 22.92 31.7207 22.9336 31.6559C22.944 31.6063 22.9304 31.554 22.8932 31.5197L20.6719 29.4737C20.5873 29.3959 20.4505 29.4558 20.4505 29.5708V31.0802C20.4505 31.0877 20.454 31.0944 20.4595 31.0994L22.4832 32.963C22.6693 33.1344 22.6812 33.4243 22.5097 33.6104C22.3383 33.7966 22.0484 33.8087 21.8622 33.6373L20.6719 32.5408C20.5873 32.4629 20.4505 32.5229 20.4505 32.6379V34.6443C20.4505 34.8974 20.2453 35.1026 19.9922 35.1026C19.7391 35.1026 19.5339 34.8974 19.5339 34.6443V32.6379C19.5339 32.5229 19.3971 32.4629 19.3125 32.5408L18.1222 33.6373C17.936 33.8087 17.6462 33.7966 17.4747 33.6104C17.3033 33.4243 17.3151 33.1344 17.5013 32.963L19.5249 31.0994C19.5304 31.0944 19.5339 31.0877 19.5339 31.0802V29.5708C19.5339 29.4558 19.3971 29.3958 19.3126 29.4737L17.0912 31.5194C17.054 31.5537 17.0404 31.6061 17.051 31.6556C17.0647 31.7205 17.0721 31.7877 17.0721 31.8567C17.072 32.3923 16.6376 32.8265 16.1019 32.8266C15.5663 32.8265 15.1321 32.3923 15.132 31.8567C15.132 31.321 15.5663 30.8866 16.1019 30.8865C16.1727 30.8865 16.2418 30.8942 16.3083 30.9087C16.3538 30.9186 16.4021 30.9081 16.4364 30.8765L19.5249 28.0324C19.5304 28.0273 19.5339 28.0206 19.5339 28.0132V26.2857C19.5339 26.1707 19.3971 26.1107 19.3126 26.1886L14.1319 30.9597C13.9457 31.1311 13.6556 31.1193 13.4842 30.9331C13.3128 30.747 13.3248 30.4571 13.511 30.2857L19.5249 24.7473C19.5305 24.7422 19.5339 24.7352 19.5339 24.7277V23.1625C19.5339 23.0475 19.3971 22.9875 19.3126 23.0654L13.0747 28.8098C13.0377 28.8439 13.024 28.8958 13.0342 28.9451C13.0471 29.008 13.054 29.0732 13.054 29.1399C13.0539 29.6756 12.6195 30.1099 12.0838 30.1099C11.5481 30.1098 11.1139 29.6756 11.1138 29.1399C11.1139 28.6043 11.5481 28.1698 12.0838 28.1698C12.1571 28.1698 12.2284 28.1779 12.2971 28.1933C12.3429 28.2036 12.3917 28.1932 12.4262 28.1614L19.5249 21.6241C19.5305 21.6189 19.5339 21.612 19.5339 21.6044V19.7732C19.5339 19.744 19.4984 19.7295 19.478 19.7504C19.3332 19.8979 19.1745 20.0288 19.0056 20.1424C18.9999 20.1463 18.9945 20.1505 18.9895 20.1551L11.4157 27.13C11.3788 27.1641 11.3651 27.216 11.3752 27.2653C11.3882 27.3282 11.3951 27.3934 11.3951 27.4602C11.3949 27.9958 10.9605 28.4301 10.4249 28.4301C9.88925 28.43 9.45505 27.9958 9.45493 27.4602C9.45493 26.9244 9.88918 26.49 10.4249 26.49C10.498 26.49 10.5694 26.498 10.6379 26.5133C10.6838 26.5235 10.7325 26.5132 10.767 26.4814L11.9652 25.3782C12.0536 25.2967 11.996 25.1491 11.8758 25.1491H11.5417C11.2886 25.1491 11.0834 24.9439 11.0834 24.6908C11.0834 24.4377 11.2886 24.2325 11.5417 24.2325H13.1579C13.191 24.2325 13.2229 24.2201 13.2473 24.1976L16.8396 20.8894C16.9281 20.8079 16.8704 20.6603 16.7502 20.6603H15.0303C15.0002 20.6603 14.971 20.6706 14.9475 20.6895L12.0781 23.0002L9.52679 25.1217C9.492 25.1507 9.47514 25.1954 9.4778 25.2405C9.47886 25.2585 9.47942 25.2766 9.47942 25.2948C9.47931 25.8304 9.04491 26.2647 8.50923 26.2647C7.9736 26.2646 7.5394 25.8304 7.53929 25.2948C7.53929 24.759 7.97354 24.3246 8.50923 24.3246C8.63144 24.3246 8.74834 24.3472 8.85604 24.3885C8.90453 24.4071 8.95995 24.4012 8.99988 24.3679L10.2421 23.335C10.337 23.256 10.2812 23.1015 10.1577 23.1015H9.02113C8.76811 23.1014 8.56286 22.8963 8.56284 22.6432C8.56284 22.3902 8.7681 22.185 9.02113 22.1849H11.5826C11.6127 22.1849 11.6419 22.1746 11.6653 22.1558L13.2308 20.8951C13.3278 20.817 13.2726 20.6603 13.148 20.6603H9.23535C9.18676 20.6603 9.14271 20.6874 9.11631 20.7282C8.9435 20.9952 8.64319 21.172 8.30148 21.172C7.76583 21.1719 7.33161 20.7377 7.33154 20.202C7.3316 19.6664 7.76582 19.2319 8.30148 19.2318C8.64322 19.2318 8.94374 19.4087 9.11657 19.6758C9.14297 19.7166 9.18702 19.7437 9.23562 19.7437H17.3095C17.7071 19.7437 18.0927 19.6316 18.4253 19.4259C18.4322 19.4217 18.4386 19.4167 18.4446 19.4112L19.2628 18.6578C19.2684 18.6526 19.2744 18.6477 19.2803 18.6429C19.3226 18.5998 19.3641 18.5551 19.4063 18.5112C19.4846 18.4297 19.5339 18.3226 19.5339 18.2096C19.5339 18.1248 19.5064 18.0422 19.4555 17.9744L14.6535 11.5749C14.6286 11.5417 14.5895 11.5221 14.5479 11.5221H12.8862C12.0383 11.5221 11.2288 11.1676 10.6535 10.5447L8.959 8.70989C8.92229 8.67014 8.86524 8.65766 8.81318 8.67245C8.72925 8.69629 8.64074 8.70924 8.54918 8.70924C8.01353 8.70917 7.57931 8.27495 7.57925 7.73931C7.57925 7.20361 8.01349 6.76919 8.54918 6.76912C9.08492 6.76912 9.51937 7.20356 9.51937 7.73931C9.51936 7.78535 9.51599 7.8306 9.50967 7.8749C9.50363 7.91733 9.515 7.96088 9.54407 7.99236L11.3267 9.92301C11.7285 10.358 12.294 10.6055 12.8862 10.6055H13.6622C13.771 10.6055 13.833 10.4814 13.7678 10.3944L11.8982 7.90273C11.7463 7.70029 11.7873 7.41307 11.9897 7.26117C12.1921 7.10934 12.4793 7.1503 12.6312 7.35268L19.2964 16.2354C19.3725 16.3368 19.5339 16.283 19.5339 16.1562V13.9597C19.5339 13.9327 19.5256 13.9063 19.5102 13.8842L15.9372 8.7664C15.909 8.72605 15.8608 8.70552 15.8116 8.70803C15.7961 8.70883 15.7805 8.70924 15.7648 8.70924C15.2291 8.70917 14.7949 8.27495 14.7948 7.73931C14.7948 7.20361 15.2291 6.76919 15.7648 6.76912C16.3005 6.76912 16.735 7.20356 16.735 7.73931C16.735 7.86489 16.711 7.98484 16.6675 8.09496C16.6498 8.13964 16.6531 8.19061 16.6806 8.22999L19.2937 11.973C19.3677 12.0789 19.5339 12.0266 19.5339 11.8975V8.67262C19.5339 8.62406 19.5068 8.58003 19.4661 8.55362C19.1993 8.38081 19.0228 8.08076 19.0228 7.73931C19.0228 7.20356 19.4572 6.76912 19.993 6.76912C20.5286 6.76926 20.9629 7.20365 20.9629 7.73931C20.9629 8.0812 20.7858 8.3817 20.5185 8.55442C20.4777 8.58081 20.4505 8.62489 20.4505 8.67352V11.8974C20.4505 12.0265 20.6168 12.0788 20.6907 11.973L23.3039 8.22943C23.3314 8.19007 23.3346 8.13914 23.317 8.09448C23.2737 7.98449 23.2497 7.8647 23.2497 7.73931C23.2497 7.20356 23.6842 6.76912 24.2199 6.76912C24.7556 6.76919 25.1898 7.20361 25.1898 7.73931C25.1898 8.27495 24.7556 8.70917 24.2199 8.70924C24.204 8.70924 24.1881 8.70883 24.1724 8.70803C24.1232 8.70554 24.0749 8.72608 24.0467 8.76647L20.4743 13.8842C20.4588 13.9063 20.4505 13.9327 20.4505 13.9597V16.1562C20.4505 16.283 20.6119 16.3368 20.688 16.2354L27.3532 7.35268C27.5051 7.1503 27.7923 7.10934 27.9947 7.26117C28.1972 7.41307 28.2381 7.70029 28.0862 7.90273L26.2167 10.3944C26.1514 10.4814 26.2135 10.6055 26.3222 10.6055H27.0988C27.6909 10.6055 28.2565 10.3581 28.6582 9.92301L30.3288 8.11327C30.3618 8.07758 30.3717 8.02684 30.3597 7.97978C30.34 7.90289 30.3295 7.82234 30.3295 7.73931C30.3295 7.20356 30.7639 6.76912 31.2997 6.76912Z" fill="white"/>
</svg>
