<?xml version="1.0" encoding="utf-8"?>
<svg xmlns="http://www.w3.org/2000/svg" width="475" height="150" viewBox="0 0 475 150" fill="none">
<rect x="0.899414" y="8" width="473.5" height="134" fill="#F5F3E7"/>
<path d="M179.699 93L190.299 58H195.249L184.499 93H179.699ZM158.449 93L147.849 58H152.849L163.249 93H158.449ZM158.999 93L169.099 58H173.749L163.699 93H158.999ZM179.249 93L169.399 58H174.049L184.099 93H179.249ZM208.288 93.6C205.788 93.6 203.588 93.05 201.688 91.95C199.788 90.8167 198.288 89.2667 197.188 87.3C196.122 85.3333 195.588 83.0667 195.588 80.5C195.588 77.9333 196.122 75.6667 197.188 73.7C198.255 71.7333 199.738 70.2 201.638 69.1C203.538 67.9667 205.722 67.4 208.188 67.4C210.655 67.4 212.838 67.9667 214.738 69.1C216.638 70.2 218.122 71.7333 219.188 73.7C220.255 75.6667 220.788 77.9333 220.788 80.5C220.788 83.0667 220.255 85.3333 219.188 87.3C218.122 89.2667 216.638 90.8167 214.738 91.95C212.872 93.05 210.722 93.6 208.288 93.6ZM208.288 89.25C209.788 89.25 211.122 88.8833 212.288 88.15C213.455 87.3833 214.355 86.35 214.988 85.05C215.655 83.75 215.988 82.2333 215.988 80.5C215.988 78.7667 215.655 77.25 214.988 75.95C214.355 74.65 213.438 73.6333 212.238 72.9C211.038 72.1333 209.688 71.75 208.188 71.75C206.655 71.75 205.305 72.1333 204.138 72.9C202.972 73.6333 202.055 74.65 201.388 75.95C200.722 77.25 200.388 78.7667 200.388 80.5C200.388 82.2333 200.722 83.75 201.388 85.05C202.055 86.35 202.988 87.3833 204.188 88.15C205.388 88.8833 206.755 89.25 208.288 89.25ZM237.292 93.6C234.792 93.6 232.592 93.05 230.692 91.95C228.792 90.8167 227.292 89.2667 226.192 87.3C225.126 85.3333 224.592 83.0667 224.592 80.5C224.592 77.9333 225.126 75.6667 226.192 73.7C227.259 71.7333 228.742 70.2 230.642 69.1C232.542 67.9667 234.726 67.4 237.192 67.4C239.659 67.4 241.842 67.9667 243.742 69.1C245.642 70.2 247.126 71.7333 248.192 73.7C249.259 75.6667 249.792 77.9333 249.792 80.5C249.792 83.0667 249.259 85.3333 248.192 87.3C247.126 89.2667 245.642 90.8167 243.742 91.95C241.876 93.05 239.726 93.6 237.292 93.6ZM237.292 89.25C238.792 89.25 240.126 88.8833 241.292 88.15C242.459 87.3833 243.359 86.35 243.992 85.05C244.659 83.75 244.992 82.2333 244.992 80.5C244.992 78.7667 244.659 77.25 243.992 75.95C243.359 74.65 242.442 73.6333 241.242 72.9C240.042 72.1333 238.692 71.75 237.192 71.75C235.659 71.75 234.309 72.1333 233.142 72.9C231.976 73.6333 231.059 74.65 230.392 75.95C229.726 77.25 229.392 78.7667 229.392 80.5C229.392 82.2333 229.726 83.75 230.392 85.05C231.059 86.35 231.992 87.3833 233.192 88.15C234.392 88.8833 235.759 89.25 237.292 89.25ZM273.296 93L273.096 88.35V58H277.796V93H273.296ZM264.896 93.6C262.63 93.6 260.646 93.05 258.946 91.95C257.28 90.85 255.963 89.3167 254.996 87.35C254.063 85.3833 253.596 83.1 253.596 80.5C253.596 77.8667 254.063 75.5833 254.996 73.65C255.963 71.6833 257.28 70.15 258.946 69.05C260.646 67.95 262.63 67.4 264.896 67.4C266.996 67.4 268.813 67.95 270.346 69.05C271.913 70.15 273.113 71.6833 273.946 73.65C274.78 75.5833 275.196 77.8667 275.196 80.5C275.196 83.1 274.78 85.3833 273.946 87.35C273.113 89.3167 271.913 90.85 270.346 91.95C268.813 93.05 266.996 93.6 264.896 93.6ZM265.996 89.3C267.396 89.3 268.63 88.9333 269.696 88.2C270.763 87.4333 271.596 86.4 272.196 85.1C272.796 83.7667 273.096 82.2333 273.096 80.5C273.096 78.7667 272.796 77.25 272.196 75.95C271.596 74.6167 270.763 73.5833 269.696 72.85C268.63 72.0833 267.38 71.7 265.946 71.7C264.48 71.7 263.18 72.0833 262.046 72.85C260.913 73.5833 260.03 74.6167 259.396 75.95C258.763 77.25 258.446 78.7667 258.446 80.5C258.446 82.2333 258.763 83.7667 259.396 85.1C260.063 86.4 260.963 87.4333 262.096 88.2C263.23 88.9333 264.53 89.3 265.996 89.3ZM318.274 93L328.874 58H333.824L323.074 93H318.274ZM297.024 93L286.424 58H291.424L301.824 93H297.024ZM297.574 93L307.674 58H312.324L302.274 93H297.574ZM317.824 93L307.974 58H312.624L322.674 93H317.824ZM337.913 93V68H342.663V93H337.913ZM340.313 62.7C339.547 62.7 338.88 62.4167 338.313 61.85C337.747 61.25 337.463 60.5667 337.463 59.8C337.463 59 337.747 58.3333 338.313 57.8C338.88 57.2333 339.547 56.95 340.313 56.95C341.113 56.95 341.78 57.2333 342.313 57.8C342.88 58.3333 343.163 59 343.163 59.8C343.163 60.5667 342.88 61.25 342.313 61.85C341.78 62.4167 341.113 62.7 340.313 62.7ZM367.925 93L367.725 88.35V58H372.425V93H367.925ZM359.525 93.6C357.259 93.6 355.275 93.05 353.575 91.95C351.909 90.85 350.592 89.3167 349.625 87.35C348.692 85.3833 348.225 83.1 348.225 80.5C348.225 77.8667 348.692 75.5833 349.625 73.65C350.592 71.6833 351.909 70.15 353.575 69.05C355.275 67.95 357.259 67.4 359.525 67.4C361.625 67.4 363.442 67.95 364.975 69.05C366.542 70.15 367.742 71.6833 368.575 73.65C369.409 75.5833 369.825 77.8667 369.825 80.5C369.825 83.1 369.409 85.3833 368.575 87.35C367.742 89.3167 366.542 90.85 364.975 91.95C363.442 93.05 361.625 93.6 359.525 93.6ZM360.625 89.3C362.025 89.3 363.259 88.9333 364.325 88.2C365.392 87.4333 366.225 86.4 366.825 85.1C367.425 83.7667 367.725 82.2333 367.725 80.5C367.725 78.7667 367.425 77.25 366.825 75.95C366.225 74.6167 365.392 73.5833 364.325 72.85C363.259 72.0833 362.009 71.7 360.575 71.7C359.109 71.7 357.809 72.0833 356.675 72.85C355.542 73.5833 354.659 74.6167 354.025 75.95C353.392 77.25 353.075 78.7667 353.075 80.5C353.075 82.2333 353.392 83.7667 354.025 85.1C354.692 86.4 355.592 87.4333 356.725 88.2C357.859 88.9333 359.159 89.3 360.625 89.3ZM390.07 93.6C387.636 93.6 385.486 93.05 383.62 91.95C381.753 90.8167 380.286 89.2667 379.22 87.3C378.153 85.3333 377.62 83.0667 377.62 80.5C377.62 77.9333 378.153 75.6667 379.22 73.7C380.286 71.7333 381.753 70.2 383.62 69.1C385.52 67.9667 387.686 67.4 390.12 67.4C392.42 67.4 394.436 67.9833 396.17 69.15C397.903 70.2833 399.253 71.9167 400.22 74.05C401.22 76.15 401.72 78.6333 401.72 81.5H381.52L382.42 80.75C382.42 82.5167 382.77 84.05 383.47 85.35C384.17 86.65 385.12 87.65 386.32 88.35C387.52 89.0167 388.886 89.35 390.42 89.35C392.086 89.35 393.47 88.9667 394.57 88.2C395.703 87.4 396.586 86.4 397.22 85.2L401.32 87.1C400.653 88.4 399.786 89.55 398.72 90.55C397.653 91.5167 396.386 92.2667 394.92 92.8C393.486 93.3333 391.87 93.6 390.07 93.6ZM382.72 78.5L381.77 77.75H397.57L396.67 78.5C396.67 77.0333 396.37 75.7833 395.77 74.75C395.17 73.6833 394.37 72.8833 393.37 72.35C392.37 71.7833 391.253 71.5 390.02 71.5C388.82 71.5 387.653 71.7833 386.52 72.35C385.42 72.8833 384.503 73.6667 383.77 74.7C383.07 75.7333 382.72 77 382.72 78.5Z" fill="#0B3D2E"/>
<path d="M422.424 75L415.724 57.5H419.149L426.049 75H422.424ZM408.599 75L415.499 57.5H418.924L412.224 75H408.599ZM411.849 71.15V68.125H422.824V71.15H411.849ZM428.146 75V57.5H431.571V75H428.146Z" fill="#0B3D2E"/>
<path d="M82.4512 70.2472C82.3941 68.616 82.3661 66.9831 82.2608 65.3546C82.2318 64.9063 82.0169 64.4492 81.808 64.037C80.8718 62.19 79.7102 60.4893 78.4739 58.8308C77.636 57.7061 76.9051 56.5003 76.1207 55.3351C75.832 54.9053 75.6127 54.4323 75.0757 54.1963C74.8739 54.1073 74.7361 53.7647 74.6624 53.5102C74.458 52.8082 74.787 52.256 75.2547 51.7733C75.6083 51.4096 76.0505 51.2422 76.5322 51.4298C77.5026 51.8068 78.2168 52.6453 77.421 53.8026C77.2833 54.0034 77.2631 54.1311 77.407 54.3372C78.8389 56.3894 80.2603 58.4486 81.6808 60.5087C81.9124 60.8442 82.1248 61.193 82.381 61.5885C82.4117 61.4555 82.4503 61.3683 82.4494 61.2828C82.417 58.8784 82.3783 56.4748 82.3476 54.0712C82.3432 53.7568 82.2985 53.5023 82.0441 53.2574C81.6378 52.8663 81.6168 52.3599 81.8949 51.8913C82.3073 51.1956 82.8451 50.8891 83.4181 51.0247C84.0042 51.1638 84.4569 51.6632 84.5148 52.2507C84.5552 52.6611 84.5148 53.0399 84.113 53.2909C84.0375 53.3375 83.9875 53.4838 83.9866 53.5842C83.9796 56.104 83.9814 58.6247 84.0691 61.2115C84.3253 60.8935 84.6034 60.5906 84.8351 60.2559C86.1863 58.3077 87.527 56.3524 88.872 54.4006C88.9624 54.2694 89.0668 54.1478 89.1738 54.0096C89.1107 53.9039 89.0545 53.8035 88.9922 53.7066C88.679 53.2222 88.5298 52.7237 88.8711 52.1882C89.259 51.5778 89.8144 51.2449 90.5338 51.3611C91.1454 51.4598 91.5235 51.8913 91.7008 52.4841C91.8517 52.9861 91.7771 53.4741 91.5428 53.9321C91.4735 54.0677 91.3393 54.2606 91.2252 54.2667C90.7111 54.2958 90.6075 54.7221 90.3803 55.0445C89.1493 56.7901 87.8858 58.5129 86.6803 60.2761C85.8818 61.4449 85.1299 62.6498 84.4245 63.8775C84.1797 64.3029 84.041 64.8411 84.0208 65.3343C83.9603 66.8281 83.9814 68.3245 83.9726 69.82C83.9726 69.8588 83.9945 69.8975 84.027 70.0058C84.1928 69.8112 84.342 69.6606 84.4631 69.4906C85.9231 67.4411 87.3708 65.3819 88.8387 63.3376C91.2121 60.0331 93.6021 56.7399 95.9746 53.4344C96.2457 53.0566 96.451 52.6294 96.6809 52.2216C97.0644 51.5399 97.5794 51.3268 98.105 51.6377C98.6156 51.9398 98.7446 52.7527 98.3682 53.3182C98.3041 53.4151 98.2225 53.5014 98.1409 53.5842C97.7917 53.9373 97.396 54.2527 97.0968 54.6437C96.3335 55.639 95.6123 56.6677 94.8744 57.6832C94.8945 57.7158 94.9147 57.7484 94.9349 57.781C95.1069 57.7475 95.2946 57.7457 95.4491 57.6744C96.8792 57.0147 98.3199 56.377 99.7229 55.6627C100.748 55.1413 101.574 54.3354 102.337 53.4811C102.455 53.349 102.448 53.083 102.457 52.8769C102.489 52.093 103.265 51.3347 104.077 51.3118C104.825 51.2907 105.531 51.9706 105.571 52.7501C105.619 53.7128 104.874 54.4367 103.901 54.3169C103.626 54.2826 103.527 54.383 103.382 54.5653C102.611 55.5306 101.751 56.3832 100.659 57.0059C98.3945 58.298 96.0194 59.3478 93.5907 60.2691C92.98 60.5007 92.5984 60.8583 92.2395 61.3507C90.5768 63.6336 88.8878 65.8962 87.2269 68.1809C86.5925 69.0537 85.8616 69.9054 85.7134 71.0178C85.6212 71.7154 85.6581 72.4447 85.7406 73.1475C85.8415 74.015 86.8812 74.9618 87.9288 74.961C91.2296 74.9592 94.5304 75.0147 97.8312 75.049C99.4667 75.0667 101.103 75.0984 102.739 75.0957C102.99 75.0957 103.277 74.9962 103.486 74.8526C104.302 74.289 104.959 74.2572 105.652 74.8042C106.142 75.19 106.364 75.8294 106.196 76.364C105.966 77.0915 105.287 77.642 104.557 77.6957C103.993 77.7371 103.512 77.4236 103.215 76.8194C103.19 76.7674 103.169 76.7128 103.154 76.6784H94.9059C96.2264 78.0207 97.4188 79.3762 99.4079 79.4599C100.195 79.4925 100.981 79.5999 101.768 79.6017C102.224 79.6034 102.685 79.4836 103.136 79.3815C103.541 79.289 103.925 79.2758 104.249 79.5647C104.557 79.8386 104.777 80.168 104.602 80.611C104.394 81.1386 103.83 81.4662 103.275 81.431C102.302 81.3702 101.327 81.3279 100.353 81.2795C100.3 81.2769 100.248 81.2839 100.14 81.3834C100.678 81.793 101.214 82.2043 101.753 82.6121C101.846 82.6825 101.956 82.731 102.049 82.8006C102.445 83.0983 102.786 83.1203 103.217 82.7812C103.966 82.1911 104.613 82.1541 105.145 82.546C105.663 82.9265 105.843 83.7395 105.599 84.5577C105.358 85.368 104.703 85.6375 103.977 85.7678C103.416 85.8682 102.703 85.4146 102.381 84.88C101.879 84.0486 101.194 83.4541 100.267 83.0815C99.5343 82.7865 98.8218 82.3769 98.1953 81.8943C97.1091 81.0576 96.0904 80.1336 95.0551 79.2318C94.1294 78.425 93.2292 77.59 92.2974 76.7912C92.1342 76.6511 91.8701 76.5719 91.6508 76.5683C90.7751 76.5543 89.8995 76.5816 89.0238 76.593C88.8536 76.5948 88.6834 76.593 88.3895 76.593C88.915 77.1162 89.3476 77.5566 89.7907 77.9855C90.7356 78.9006 91.678 79.8192 92.6387 80.7176C93.3547 81.3861 94.0549 82.0863 94.8472 82.6517C95.3113 82.9829 95.9281 83.1529 96.5019 83.2638C97.3293 83.4241 98.1778 83.477 99.0192 83.5519C99.5676 83.6003 99.8133 83.7844 99.8185 84.2239C99.8238 84.6634 99.5316 84.9646 99.0157 84.9584C98.4375 84.9514 97.8602 84.88 97.2337 84.8334C97.7426 85.5846 98.355 86.202 99.0455 86.7402C99.1359 86.8106 99.3544 86.7684 99.4913 86.7182C100.194 86.461 100.857 86.4777 101.389 87.0555C101.873 87.5813 101.989 88.2313 101.736 88.8972C101.455 89.6317 100.906 90.0377 100.099 90.0756C98.992 90.1276 98.405 89.6757 98.1637 88.6206C98.1093 88.381 97.9453 88.1362 97.7663 87.9618C96.0711 86.3086 94.3742 84.6572 92.6545 83.0304C91.2638 81.7146 89.8898 80.3741 88.4202 79.1525C86.9461 77.9274 85.752 76.4574 84.4894 75.042C84.3411 74.8755 84.1718 74.7285 84.0138 74.5734C84.0138 75.8241 84.0007 77.0175 84.0279 78.2092C84.0323 78.3968 84.1823 78.6223 84.3297 78.7605C86.6873 80.9704 89.0835 83.1405 91.4104 85.3829C92.5448 86.476 93.5565 87.6984 94.6217 88.8646C94.9472 89.2213 95.2472 89.6009 95.5859 89.9435C95.9404 90.3028 96.3168 90.5274 96.8985 90.4623C97.8505 90.3548 98.6691 91.801 98.2638 92.7742C97.9049 93.6365 96.888 94.0601 95.8983 93.7598C95.1709 93.5387 94.7682 92.6342 94.9682 91.72C94.9963 91.5923 94.9498 91.3932 94.8612 91.3034C92.744 89.1596 90.6242 87.0194 88.4886 84.895C87.2128 83.6267 85.9108 82.3849 84.6166 81.1351C84.4429 80.9668 84.2455 80.8224 83.9998 80.6181C83.9998 81.5147 83.9314 82.3338 84.0323 83.1309C84.0752 83.4682 84.4455 83.787 84.7149 84.068C85.5642 84.954 86.4627 85.7943 87.2909 86.6988C87.9595 87.4298 88.5132 88.2665 89.1905 88.9879C90.0495 89.903 90.9822 90.7485 91.8833 91.624C92.0403 91.7763 92.2141 91.9146 92.3536 92.0811C92.8282 92.6492 93.3661 93.1186 94.0566 93.4242C94.762 93.7369 94.8928 94.0258 94.777 94.6916C94.6831 95.2289 94.2163 95.6517 93.6267 95.7318C92.7247 95.8551 92.236 95.4368 92.1053 94.5296C92.0605 94.2196 91.8885 93.8778 91.6709 93.6515C90.7514 92.6967 89.874 91.6856 88.6465 91.0894C88.4465 90.9916 88.2526 90.8181 88.1315 90.6305C87.6954 89.9549 87.326 89.2354 86.8663 88.5774C86.4504 87.9821 85.9625 87.4342 85.4809 86.8873C84.9939 86.3342 84.4753 85.8092 83.8884 85.1839C83.9191 85.8242 83.9586 86.343 83.9664 86.8626C83.9822 87.9037 83.984 88.9447 83.984 89.9858C83.984 90.3707 84.1068 90.6675 84.3955 90.9511C85.5309 92.0705 86.6311 93.2252 87.7595 94.3517C87.8806 94.4723 88.0964 94.5032 88.2736 94.5569C88.3368 94.5763 88.4184 94.5481 88.4895 94.5313C90.0583 94.1623 91.0006 95.4667 90.6163 96.9147C90.4715 97.4599 90.1021 97.8324 89.5678 97.9284C89.1072 98.0112 88.6114 98.0112 88.1482 97.9399C87.663 97.8641 87.326 97.5127 87.3129 96.9975C87.2944 96.2409 86.8917 95.716 86.3907 95.2254C85.6493 94.4988 84.9149 93.7633 84.1753 93.0349C84.1182 92.9795 84.0401 92.946 83.977 92.9046C83.977 94.0038 83.9656 95.0801 83.9919 96.1555C83.9954 96.284 84.184 96.425 84.3104 96.5315C85.0588 97.1604 85.8388 97.754 86.5557 98.4172C86.9022 98.7378 87.1365 99.1809 87.4146 99.5746C87.4805 99.6688 87.5594 99.7868 87.555 99.8907C87.5436 100.156 87.5717 100.564 87.4296 100.647C87.2313 100.764 86.8277 100.73 86.6259 100.593C86.2337 100.326 85.9222 99.9401 85.5747 99.6063C85.0588 99.1122 84.5403 98.6207 83.9656 98.0746C83.9331 98.2455 83.9042 98.3336 83.9024 98.4225C83.8892 98.9351 83.9015 99.4495 83.8699 99.9612C83.834 100.561 83.9471 101.049 84.4596 101.463C84.9737 101.879 84.9307 102.598 84.4683 103.157C84.0595 103.652 83.0583 103.877 82.4924 103.602C81.7668 103.251 81.3518 102.544 81.5422 101.817C81.6247 101.503 81.9089 101.244 82.0932 100.954C82.1976 100.79 82.3626 100.617 82.3678 100.444C82.3959 99.5534 82.381 98.6612 82.381 97.6836C82.2099 97.8386 82.0704 97.9504 81.9467 98.0781C81.2947 98.7502 80.6656 99.4468 79.9865 100.09C79.7347 100.328 79.3829 100.49 79.0486 100.599C78.7143 100.707 78.5546 100.483 78.6143 100.152C78.6441 99.9859 78.7231 99.8185 78.8143 99.6732C79.6645 98.3212 80.7709 97.1948 81.9607 96.1493C82.2143 95.9256 82.3555 95.6992 82.3547 95.3672C82.3511 94.4609 82.3529 93.5546 82.3529 92.5223C82.152 92.6826 82.0248 92.761 81.9256 92.8667C81.0666 93.7845 80.2076 94.7031 79.3592 95.6314C79.0986 95.9168 78.9477 96.2338 79.0082 96.6645C79.117 97.429 78.6116 97.843 78.0203 98.1671C77.4035 98.5044 76.8226 98.3556 76.3058 97.9531C75.6039 97.4061 75.3065 96.5236 75.5706 95.9027C75.9224 95.0774 76.7533 94.6379 77.7448 94.8343C78.1019 94.9048 78.2589 94.7806 78.4651 94.5463C79.4215 93.4612 80.3963 92.3929 81.3667 91.3201C81.4544 91.2224 81.5422 91.107 81.6554 91.0532C82.2757 90.7626 82.3608 90.2421 82.3354 89.6326C82.295 88.6664 82.2959 87.6976 82.2739 86.7305C82.2704 86.5728 82.2415 86.4152 82.2116 86.1369C81.9835 86.3342 81.8063 86.4531 81.6738 86.609C81.2658 87.0872 80.9148 87.6209 80.47 88.0596C79.2627 89.2495 78.0176 90.4006 76.7884 91.5685C76.0672 92.2537 75.3495 92.9416 74.6256 93.6242C74.3869 93.8488 74.2773 94.0963 74.3045 94.4406C74.3448 94.9656 74.0474 95.3733 73.5359 95.5971C73.1042 95.7855 72.5988 95.6851 72.2417 95.3364C71.588 94.6978 71.4897 93.6612 72.4479 93.2261C73.3402 92.8209 73.9781 92.1383 74.6405 91.4531C75.7794 90.2755 77.0025 89.1799 78.1159 87.9794C79.0793 86.941 79.9348 85.8022 80.8455 84.7145C81.2114 84.2776 81.5817 83.8416 81.98 83.4347C82.2581 83.1502 82.3696 82.8349 82.3634 82.4483C82.3529 81.7807 82.3608 81.1122 82.3608 80.4437C82.3064 80.419 82.2529 80.3943 82.1985 80.3697C81.9853 80.5247 81.7457 80.6542 81.5615 80.8382C80.3928 82.0079 79.2293 83.1828 78.0764 84.3674C75.9759 86.5279 73.8868 88.699 71.7846 90.8577C71.5327 91.1167 71.4292 91.3712 71.4511 91.749C71.5301 93.0878 70.7317 93.9316 69.5191 93.8505C68.84 93.8056 68.2065 93.2217 68.1205 92.5444C68.0179 91.7358 68.1951 90.996 68.8733 90.5089C69.1401 90.3169 69.5568 90.3434 69.8964 90.2421C70.1324 90.1716 70.4149 90.1126 70.5729 89.9479C72.6339 87.7892 74.6502 85.5864 76.7331 83.4506C78.0694 82.0801 79.5048 80.8057 80.8841 79.4775C82.5968 77.8269 82.2678 78.3431 82.3415 76.2883C82.3617 75.7343 82.3441 75.1785 82.3441 74.5514C82.2064 74.6236 82.0362 74.6571 81.9607 74.7602C81.1798 75.8268 80.1129 76.5824 79.1477 77.4535C77.3675 79.0582 75.6285 80.7105 73.8947 82.3672C72.139 84.0451 70.414 85.7537 68.668 87.4413C68.4136 87.6879 68.2732 87.931 68.2907 88.3141C68.3328 89.238 67.5642 90.0201 66.6324 90.0659C65.6682 90.1135 64.8899 89.482 64.7855 88.5695C64.6767 87.6148 65.2865 86.7877 66.2218 86.6266C66.3938 86.5966 66.5684 86.5772 66.743 86.5684C66.9808 86.557 67.2966 86.6574 67.444 86.5394C67.8783 86.1924 68.246 85.7608 68.5917 85.4111C68.1582 85.0192 67.8064 84.7004 67.4546 84.3815C67.4677 84.3375 67.4818 84.2926 67.4949 84.2485C67.7432 84.1974 67.9968 84.0847 68.2398 84.1041C69.5963 84.2151 70.5518 83.5166 71.4573 82.6244C73.3428 80.7669 75.2608 78.9429 77.1639 77.103C77.2885 76.9823 77.3982 76.8458 77.586 76.6379C76.8981 76.6379 76.2874 76.7137 75.7022 76.6221C74.5966 76.4486 73.8052 76.859 73.0103 77.6112C71.2704 79.2573 69.4542 80.8242 67.6397 82.3901C66.7667 83.1432 65.8191 83.809 64.9232 84.5365C64.6662 84.7453 64.4705 85.0298 64.2468 85.2799C63.6598 85.9352 62.7631 86.1289 62.0182 85.7617C61.3741 85.4437 60.953 84.4714 61.1188 83.6831C61.3496 82.5795 62.7017 82.0828 63.6194 82.7741C63.8388 82.9388 64.023 83.1502 64.2573 83.3713C64.6267 83.0692 65.0198 82.753 65.4067 82.4289C65.7831 82.1136 66.1525 81.7903 66.6008 81.4055C65.9296 81.4055 65.3365 81.4002 64.7434 81.4072C64.2906 81.4125 63.8379 81.4609 63.3869 81.4433C62.7139 81.4169 62.2463 80.8497 62.3182 80.1971C62.3823 79.6166 62.9807 79.2353 63.5624 79.4748C64.9443 80.0456 66.3841 79.8236 67.8055 79.8315C68.0591 79.8333 68.3653 79.6977 68.5583 79.5259C69.5507 78.6408 70.5141 77.7239 71.4854 76.8158C71.5248 76.7788 71.5468 76.7234 71.5599 76.7022C70.9133 76.7022 70.2658 76.7022 69.6182 76.7022C67.7494 76.7005 65.8796 76.7005 64.0107 76.6943C63.794 76.6943 63.6414 76.704 63.551 76.9691C63.3439 77.5786 62.613 78.0198 62.0041 77.9555C61.3154 77.8824 60.6819 77.2888 60.5696 76.6106C60.4301 75.7695 60.7529 75.0323 61.4268 74.6527C62.098 74.2749 62.7911 74.3964 63.4676 74.9953C63.5536 75.0719 63.6861 75.1362 63.7975 75.1362C66.5429 75.1345 69.2892 75.1318 72.0346 75.1107C74.079 75.094 76.1242 75.0702 78.1686 75.0103C79.1126 74.983 80.0093 74.7584 80.52 73.8318C80.899 73.144 80.9315 72.3953 80.7587 71.652C80.4349 70.2613 79.5996 69.1392 78.7845 68.01C77.4236 66.1235 76.068 64.2334 74.7089 62.345C74.222 61.6677 73.7394 60.9869 73.2358 60.3219C73.1287 60.1801 72.9506 60.0242 72.7883 60.0022C71.0265 59.7653 69.5059 58.8951 67.9354 58.1597C66.6903 57.5766 65.4479 56.9759 64.4407 56.0106C63.9467 55.5368 63.5212 54.9898 63.0465 54.4949C62.9473 54.3918 62.7604 54.3099 62.6218 54.3205C62.0375 54.3663 61.5944 54.1531 61.2838 53.6643C60.9556 53.1473 60.9486 52.6092 61.2504 52.0825C61.6031 51.4598 62.4525 51.1392 63.1079 51.3567C63.8493 51.6025 64.2354 52.2172 64.1976 53.0073C64.188 53.2151 64.2599 53.4749 64.3889 53.6335C65.419 54.8938 66.7412 55.7658 68.2021 56.444C69.2331 56.9231 70.2587 57.4137 71.366 57.8409C71.2906 57.6999 71.23 57.5476 71.1362 57.4198C70.1578 56.0881 69.1822 54.7538 68.1863 53.4344C67.8503 52.9888 67.788 52.5343 67.9942 52.034C68.1951 51.5452 68.7207 51.2898 69.176 51.547C69.5121 51.7372 69.885 52.0323 70.0262 52.3714C70.579 53.7039 71.4687 54.8119 72.2777 55.9728C74.3194 58.903 76.3778 61.821 78.4388 64.738C79.4101 66.112 80.4051 67.4693 81.3807 68.8406C81.6264 69.1859 81.8352 69.5567 82.0686 69.9107C82.1572 70.0446 82.2669 70.1653 82.3669 70.2912C82.3959 70.2762 82.424 70.2621 82.4529 70.2472H82.4512ZM62.7315 83.5342C62.4551 83.5686 62.2287 83.6875 62.2717 84.0222C62.3077 84.3005 62.3314 84.6449 62.742 84.6255C63.1096 84.6088 63.2737 84.3542 63.2886 84.0143C63.3036 83.6523 63.0509 83.558 62.7315 83.5334V83.5342ZM89.531 96.0683C89.4178 95.9652 89.259 95.7124 89.0449 95.6525C88.7659 95.5742 88.5307 95.9406 88.5307 96.3254C88.5307 96.6126 88.6369 96.7641 88.9457 96.7447C89.2826 96.7235 89.4985 96.587 89.531 96.0683ZM100.713 88.1961C100.529 88.049 100.364 87.8367 100.155 87.7715C99.9247 87.7002 99.5114 88.152 99.6009 88.3687C99.6764 88.551 99.8721 88.7483 100.055 88.8038C100.298 88.8778 100.648 88.5211 100.713 88.1952L100.713 88.1961ZM69.3173 91.986C69.3787 92.3823 69.5402 92.5223 69.8385 92.5259C70.1008 92.5294 70.2895 92.4378 70.307 92.1375C70.3272 91.794 70.0578 91.4214 69.7648 91.4971C69.5858 91.5429 69.4638 91.816 69.3173 91.986ZM67.1808 88.2551C66.8834 88.034 66.6675 87.7786 66.5684 87.8182C66.349 87.9063 66.1262 88.115 66.0349 88.3308C65.9989 88.4154 66.3315 88.7985 66.4605 88.7809C66.6737 88.7518 66.857 88.5079 67.1808 88.2551ZM104.531 83.7368C104.421 83.6575 104.245 83.4294 104.067 83.4277C103.75 83.4241 103.619 83.6972 103.628 84.0107C103.635 84.2459 103.719 84.4009 103.992 84.3745C104.299 84.3445 104.524 84.2362 104.531 83.7368ZM77.2446 97.0248C77.3982 96.8504 77.6676 96.6848 77.6798 96.5007C77.7018 96.1933 77.4061 96.0912 77.1183 96.0991C76.8454 96.1061 76.6796 96.2312 76.6971 96.5333C76.7138 96.8248 76.8735 96.9481 77.2438 97.0248H77.2446ZM96.4344 92.6932C96.5028 92.6959 96.5713 92.6985 96.6397 92.7003C96.7739 92.5153 96.9845 92.3462 97.0249 92.1419C97.0837 91.8503 96.8169 91.764 96.5704 91.7482C96.2633 91.7279 96.0825 91.9314 96.1036 92.1929C96.1176 92.3673 96.3168 92.5267 96.4335 92.6932H96.4344ZM62.5227 76.261C62.5235 76.1967 62.5253 76.1324 62.5262 76.0681C62.3911 75.9721 62.263 75.8118 62.1191 75.795C61.8804 75.7677 61.6689 75.921 61.7374 76.1843C61.7751 76.3305 61.9673 76.5137 62.1094 76.5331C62.2322 76.5499 62.384 76.3596 62.5227 76.2618V76.261ZM104.534 76.3455C104.585 76.349 104.636 76.3517 104.688 76.3552C104.779 76.2152 104.922 76.0813 104.941 75.9316C104.951 75.8479 104.757 75.7387 104.654 75.64C104.554 75.7528 104.4 75.8532 104.371 75.9826C104.347 76.0857 104.473 76.2231 104.534 76.3455Z" fill="#0B3D2E"/>
<path d="M115.751 39.6438C117.407 39.6438 118.75 40.9866 118.75 42.6435L118.751 107.357C118.751 109.013 117.408 110.356 115.751 110.357H51.0372C49.3807 110.356 48.0377 109.013 48.0376 107.357L48.0383 42.6435C48.0383 40.9866 49.3811 39.6438 51.0379 39.6438H115.751Z" stroke="#0B3D2E" stroke-width="4" stroke-linejoin="round"/>
</svg>